<mxfile host="app.diagrams.net" agent="Mozilla/5.0 (X11; Ubuntu; Linux x86_64; rv:138.0) Gecko/20100101 Firefox/138.0" version="26.2.14">
  <diagram name="Page-1" id="ILu4s_CtrpNNav8_d9-R">
    <mxGraphModel dx="983" dy="550" grid="1" gridSize="10" guides="1" tooltips="1" connect="1" arrows="1" fold="1" page="1" pageScale="1" pageWidth="850" pageHeight="1100" math="0" shadow="0">
      <root>
        <mxCell id="0" />
        <mxCell id="1" parent="0" />
        <mxCell id="EpXquBmr048B3DKPvmpg-1" value="" style="shape=cube;whiteSpace=wrap;html=1;boundedLbl=1;backgroundOutline=1;darkOpacity=0.05;darkOpacity2=0.1;size=10;" vertex="1" parent="1">
          <mxGeometry x="240" y="200" width="160" height="160" as="geometry" />
        </mxCell>
        <mxCell id="EpXquBmr048B3DKPvmpg-2" value="" style="shape=cube;whiteSpace=wrap;html=1;boundedLbl=1;backgroundOutline=1;darkOpacity=0.05;darkOpacity2=0.1;size=10;" vertex="1" parent="1">
          <mxGeometry x="420" y="220" width="130" height="130" as="geometry" />
        </mxCell>
        <mxCell id="EpXquBmr048B3DKPvmpg-3" value="" style="shape=cube;whiteSpace=wrap;html=1;boundedLbl=1;backgroundOutline=1;darkOpacity=0.05;darkOpacity2=0.1;size=10;" vertex="1" parent="1">
          <mxGeometry x="580" y="240" width="100" height="100" as="geometry" />
        </mxCell>
        <mxCell id="EpXquBmr048B3DKPvmpg-4" value="" style="shape=cube;whiteSpace=wrap;html=1;boundedLbl=1;backgroundOutline=1;darkOpacity=0.05;darkOpacity2=0.1;size=5;" vertex="1" parent="1">
          <mxGeometry x="710" y="255" width="70" height="70" as="geometry" />
        </mxCell>
        <mxCell id="EpXquBmr048B3DKPvmpg-5" value="" style="rounded=0;whiteSpace=wrap;html=1;" vertex="1" parent="1">
          <mxGeometry x="800" y="200" width="20" height="160" as="geometry" />
        </mxCell>
        <mxCell id="EpXquBmr048B3DKPvmpg-7" value="" style="whiteSpace=wrap;html=1;aspect=fixed;" vertex="1" parent="1">
          <mxGeometry x="360" y="220" width="30" height="30" as="geometry" />
        </mxCell>
        <mxCell id="EpXquBmr048B3DKPvmpg-9" value="" style="endArrow=none;html=1;rounded=0;" edge="1" parent="1">
          <mxGeometry width="50" height="50" relative="1" as="geometry">
            <mxPoint x="390" y="250" as="sourcePoint" />
            <mxPoint x="460" y="280" as="targetPoint" />
          </mxGeometry>
        </mxCell>
        <mxCell id="EpXquBmr048B3DKPvmpg-10" value="" style="endArrow=none;html=1;rounded=0;" edge="1" parent="1">
          <mxGeometry width="50" height="50" relative="1" as="geometry">
            <mxPoint x="390" y="220" as="sourcePoint" />
            <mxPoint x="460" y="280" as="targetPoint" />
          </mxGeometry>
        </mxCell>
        <mxCell id="EpXquBmr048B3DKPvmpg-11" value="" style="endArrow=none;html=1;rounded=0;" edge="1" parent="1">
          <mxGeometry width="50" height="50" relative="1" as="geometry">
            <mxPoint x="360" y="250" as="sourcePoint" />
            <mxPoint x="460" y="280" as="targetPoint" />
          </mxGeometry>
        </mxCell>
        <mxCell id="EpXquBmr048B3DKPvmpg-16" value="" style="whiteSpace=wrap;html=1;aspect=fixed;" vertex="1" parent="1">
          <mxGeometry x="510" y="240" width="30" height="30" as="geometry" />
        </mxCell>
        <mxCell id="EpXquBmr048B3DKPvmpg-17" value="" style="endArrow=none;html=1;rounded=0;" edge="1" parent="1">
          <mxGeometry width="50" height="50" relative="1" as="geometry">
            <mxPoint x="540" y="270" as="sourcePoint" />
            <mxPoint x="610" y="300" as="targetPoint" />
          </mxGeometry>
        </mxCell>
        <mxCell id="EpXquBmr048B3DKPvmpg-18" value="" style="endArrow=none;html=1;rounded=0;" edge="1" parent="1">
          <mxGeometry width="50" height="50" relative="1" as="geometry">
            <mxPoint x="540" y="240" as="sourcePoint" />
            <mxPoint x="610" y="300" as="targetPoint" />
          </mxGeometry>
        </mxCell>
        <mxCell id="EpXquBmr048B3DKPvmpg-19" value="" style="endArrow=none;html=1;rounded=0;" edge="1" parent="1">
          <mxGeometry width="50" height="50" relative="1" as="geometry">
            <mxPoint x="510" y="270" as="sourcePoint" />
            <mxPoint x="610" y="300" as="targetPoint" />
          </mxGeometry>
        </mxCell>
        <mxCell id="EpXquBmr048B3DKPvmpg-20" value="" style="whiteSpace=wrap;html=1;aspect=fixed;" vertex="1" parent="1">
          <mxGeometry x="650" y="255" width="20" height="20" as="geometry" />
        </mxCell>
        <mxCell id="EpXquBmr048B3DKPvmpg-21" value="" style="endArrow=none;html=1;rounded=0;exitX=1;exitY=1;exitDx=0;exitDy=0;" edge="1" parent="1" source="EpXquBmr048B3DKPvmpg-20">
          <mxGeometry width="50" height="50" relative="1" as="geometry">
            <mxPoint x="670" y="290" as="sourcePoint" />
            <mxPoint x="740" y="310" as="targetPoint" />
          </mxGeometry>
        </mxCell>
        <mxCell id="EpXquBmr048B3DKPvmpg-22" value="" style="endArrow=none;html=1;rounded=0;exitX=1;exitY=0;exitDx=0;exitDy=0;" edge="1" parent="1" source="EpXquBmr048B3DKPvmpg-20">
          <mxGeometry width="50" height="50" relative="1" as="geometry">
            <mxPoint x="670" y="260" as="sourcePoint" />
            <mxPoint x="740" y="310" as="targetPoint" />
          </mxGeometry>
        </mxCell>
        <mxCell id="EpXquBmr048B3DKPvmpg-23" value="" style="endArrow=none;html=1;rounded=0;exitX=0;exitY=1;exitDx=0;exitDy=0;" edge="1" parent="1" source="EpXquBmr048B3DKPvmpg-20">
          <mxGeometry width="50" height="50" relative="1" as="geometry">
            <mxPoint x="640" y="290" as="sourcePoint" />
            <mxPoint x="740" y="310" as="targetPoint" />
          </mxGeometry>
        </mxCell>
        <mxCell id="EpXquBmr048B3DKPvmpg-24" value="" style="whiteSpace=wrap;html=1;aspect=fixed;" vertex="1" parent="1">
          <mxGeometry x="745" y="265" width="20" height="20" as="geometry" />
        </mxCell>
        <mxCell id="EpXquBmr048B3DKPvmpg-28" value="" style="endArrow=none;html=1;rounded=0;" edge="1" parent="1">
          <mxGeometry width="50" height="50" relative="1" as="geometry">
            <mxPoint x="765" y="285" as="sourcePoint" />
            <mxPoint x="810" y="305" as="targetPoint" />
          </mxGeometry>
        </mxCell>
        <mxCell id="EpXquBmr048B3DKPvmpg-29" value="" style="endArrow=none;html=1;rounded=0;" edge="1" parent="1">
          <mxGeometry width="50" height="50" relative="1" as="geometry">
            <mxPoint x="765" y="265" as="sourcePoint" />
            <mxPoint x="810" y="305" as="targetPoint" />
          </mxGeometry>
        </mxCell>
        <mxCell id="EpXquBmr048B3DKPvmpg-30" value="" style="endArrow=none;html=1;rounded=0;" edge="1" parent="1">
          <mxGeometry width="50" height="50" relative="1" as="geometry">
            <mxPoint x="745" y="285" as="sourcePoint" />
            <mxPoint x="810" y="305" as="targetPoint" />
          </mxGeometry>
        </mxCell>
        <mxCell id="EpXquBmr048B3DKPvmpg-31" value="Conv 1" style="text;html=1;align=center;verticalAlign=middle;whiteSpace=wrap;rounded=0;" vertex="1" parent="1">
          <mxGeometry x="290" y="360" width="60" height="30" as="geometry" />
        </mxCell>
        <mxCell id="EpXquBmr048B3DKPvmpg-33" value="Poll 1" style="text;html=1;align=center;verticalAlign=middle;whiteSpace=wrap;rounded=0;" vertex="1" parent="1">
          <mxGeometry x="455" y="360" width="60" height="30" as="geometry" />
        </mxCell>
        <mxCell id="EpXquBmr048B3DKPvmpg-34" value="Conv 2" style="text;html=1;align=center;verticalAlign=middle;whiteSpace=wrap;rounded=0;" vertex="1" parent="1">
          <mxGeometry x="610" y="360" width="60" height="30" as="geometry" />
        </mxCell>
        <mxCell id="EpXquBmr048B3DKPvmpg-35" value="Poll 2" style="text;html=1;align=center;verticalAlign=middle;whiteSpace=wrap;rounded=0;" vertex="1" parent="1">
          <mxGeometry x="715" y="360" width="60" height="30" as="geometry" />
        </mxCell>
        <mxCell id="EpXquBmr048B3DKPvmpg-36" value="Classifier" style="text;html=1;align=center;verticalAlign=middle;whiteSpace=wrap;rounded=0;" vertex="1" parent="1">
          <mxGeometry x="780" y="360" width="60" height="30" as="geometry" />
        </mxCell>
      </root>
    </mxGraphModel>
  </diagram>
</mxfile>
